<svg width="32" height="32" viewBox="0 0 32 32" fill="none" xmlns="http://www.w3.org/2000/svg">
  <rect width="32" height="32" rx="6" fill="#000000"/>
  <g transform="translate(4, 4)" stroke="#FFFFFF" stroke-width="1.5" stroke-linecap="round" stroke-linejoin="round" fill="none">
    <path d="M12.83 2.18a2 2 0 0 0-1.66 0L2.6 5.09a1 1 0 0 0 0 1.83l8.58 3.91a2 2 0 0 0 1.66 0l8.58-3.9a1 1 0 0 0 0-1.83Z"/>
    <path d="m2 12 8.5 3.87a2 2 0 0 0 1.66 0L21 12"/>
    <path d="m2 17.66 8.5 3.87a2 2 0 0 0 1.66 0L21 17.66"/>
  </g>
</svg>
